<svg width="14" height="14" viewBox="0 0 14 14" fill="none" xmlns="http://www.w3.org/2000/svg">
<path d="M12.25 3.48698C10.3075 3.29448 8.35333 3.19531 6.405 3.19531C5.25 3.19531 4.095 3.25365 2.94 3.37031L1.75 3.48698" stroke="#F4511E" stroke-width="1.5" stroke-linecap="round" stroke-linejoin="round"/>
<path d="M4.95801 2.89656L5.08634 2.1324C5.17967 1.57823 5.24967 1.16406 6.23551 1.16406H7.76384C8.74968 1.16406 8.82551 1.60156 8.91301 2.13823L9.04134 2.89656" stroke="#F4511E" stroke-width="1.5" stroke-linecap="round" stroke-linejoin="round"/>
<path d="M10.9956 5.32812L10.6164 11.2023C10.5522 12.1181 10.4997 12.8298 8.87224 12.8298H5.12724C3.49974 12.8298 3.44724 12.1181 3.38307 11.2023L3.00391 5.32812" stroke="#F4511E" stroke-width="1.5" stroke-linecap="round" stroke-linejoin="round"/>
<path d="M6.02539 9.625H7.96789" stroke="#F4511E" stroke-width="1.5" stroke-linecap="round" stroke-linejoin="round"/>
<path d="M5.54199 7.28906H8.45866" stroke="#F4511E" stroke-width="1.5" stroke-linecap="round" stroke-linejoin="round"/>
</svg>
