<svg width="24" height="24" viewBox="0 0 24 24" fill="none" xmlns="http://www.w3.org/2000/svg">
<mask id="mask0_6076_76625" style="mask-type:alpha" maskUnits="userSpaceOnUse" x="0" y="0" width="24" height="24">
<rect width="24" height="24" fill="#D9D9D9"/>
</mask>
<g mask="url(#mask0_6076_76625)">
<path d="M4.3077 20.5C3.80257 20.5 3.375 20.325 3.025 19.975C2.675 19.625 2.5 19.1974 2.5 18.6923V8.30773C2.5 7.80259 2.675 7.37503 3.025 7.02503C3.375 6.67503 3.80257 6.50003 4.3077 6.50003H8.5V4.80775C8.5 4.30263 8.675 3.87508 9.025 3.52508C9.375 3.17508 9.80257 3.00008 10.3077 3.00008H13.6923C14.1974 3.00008 14.625 3.17508 14.975 3.52508C15.325 3.87508 15.5 4.30263 15.5 4.80775V6.50003H19.6923C20.1974 6.50003 20.625 6.67503 20.975 7.02503C21.325 7.37503 21.5 7.80259 21.5 8.30773V18.6923C21.5 19.1974 21.325 19.625 20.975 19.975C20.625 20.325 20.1974 20.5 19.6923 20.5H4.3077ZM9.99998 6.50003H14V4.80775C14 4.73082 13.9679 4.6603 13.9038 4.5962C13.8397 4.53209 13.7692 4.50003 13.6923 4.50003H10.3077C10.2308 4.50003 10.1602 4.53209 10.0961 4.5962C10.032 4.6603 9.99998 4.73082 9.99998 4.80775V6.50003ZM20 14.75H14.5V16.5H9.5V14.75H3.99998V18.6923C3.99998 18.7692 4.03202 18.8397 4.09613 18.9039C4.16024 18.968 4.23077 19 4.3077 19H19.6923C19.7692 19 19.8397 18.968 19.9038 18.9039C19.9679 18.8397 20 18.7692 20 18.6923V14.75ZM11 15H13V13H11V15ZM3.99998 13.25H9.5V11.5H14.5V13.25H20V8.30773C20 8.23079 19.9679 8.16027 19.9038 8.09615C19.8397 8.03205 19.7692 8 19.6923 8H4.3077C4.23077 8 4.16024 8.03205 4.09613 8.09615C4.03202 8.16027 3.99998 8.23079 3.99998 8.30773V13.25Z" fill="white"/>
</g>
</svg>
