<svg width="24" height="24" viewBox="0 0 24 24" fill="none" xmlns="http://www.w3.org/2000/svg">
<mask id="mask0_6076_76577" style="mask-type:alpha" maskUnits="userSpaceOnUse" x="0" y="0" width="24" height="24">
<rect width="24" height="24" fill="#D9D9D9"/>
</mask>
<g mask="url(#mask0_6076_76577)">
<path d="M5.89626 10.25C5.63856 10.1731 5.39657 10.0744 5.17029 9.95384C4.944 9.83332 4.72958 9.68075 4.52701 9.49614L3.92704 9.71151C3.76165 9.76536 3.59883 9.76345 3.43856 9.70576C3.27831 9.64806 3.15268 9.54678 3.06166 9.40191L2.91936 9.16731C2.82833 9.01218 2.79467 8.8468 2.81839 8.67116C2.8421 8.49553 2.9264 8.34874 3.07129 8.23079L3.55396 7.82311C3.48216 7.55515 3.44626 7.28078 3.44626 7.00001C3.44626 6.71925 3.48216 6.44488 3.55396 6.17691L3.07129 5.76924C2.9264 5.65129 2.8421 5.50706 2.81839 5.33656C2.79467 5.16605 2.82833 5.00323 2.91936 4.84811L3.07704 4.59811C3.16807 4.45325 3.29115 4.35196 3.44626 4.29426C3.6014 4.23658 3.76165 4.23466 3.92704 4.28851L4.52701 4.50389C4.72958 4.31927 4.944 4.16671 5.17029 4.04619C5.39657 3.92567 5.63856 3.82695 5.89626 3.75004L5.99819 3.15966C6.03537 2.98403 6.12062 2.8398 6.25394 2.72696C6.38727 2.61415 6.54176 2.55774 6.71741 2.55774H6.98276C7.15841 2.55774 7.3129 2.61671 7.44624 2.73466C7.57955 2.85261 7.6648 2.9994 7.70199 3.17504L7.80391 3.75004C8.06161 3.82695 8.3036 3.92567 8.52989 4.04619C8.75617 4.16671 8.9706 4.31927 9.17316 4.50389L9.77314 4.28851C9.93852 4.23466 10.1013 4.23658 10.2616 4.29426C10.4219 4.35196 10.5475 4.45325 10.6385 4.59811L10.7808 4.83271C10.8718 4.98785 10.9055 5.15323 10.8818 5.32886C10.8581 5.5045 10.7738 5.65129 10.6289 5.76924L10.1462 6.17691C10.218 6.44488 10.2539 6.71925 10.2539 7.00001C10.2539 7.28078 10.218 7.55515 10.1462 7.82311L10.6289 8.23079C10.7738 8.34874 10.8581 8.49296 10.8818 8.66346C10.9055 8.83398 10.8718 8.9968 10.7808 9.15191L10.6231 9.40191C10.5321 9.54678 10.409 9.64806 10.2539 9.70576C10.0988 9.76345 9.93852 9.76536 9.77314 9.71151L9.17316 9.49614C8.9706 9.68075 8.75617 9.83332 8.52989 9.95384C8.3036 10.0744 8.06161 10.1731 7.80391 10.25L7.70199 10.8404C7.6648 11.016 7.57955 11.1602 7.44624 11.2731C7.3129 11.3859 7.15841 11.4423 6.98276 11.4423H6.71741C6.54176 11.4423 6.38727 11.3833 6.25394 11.2654C6.12062 11.1474 6.03537 11.0006 5.99819 10.825L5.89626 10.25ZM6.85009 9.07694C7.42574 9.07694 7.9158 8.8747 8.32029 8.47021C8.72477 8.06573 8.92701 7.57566 8.92701 7.00001C8.92701 6.42436 8.72477 5.9343 8.32029 5.52981C7.9158 5.12533 7.42574 4.92309 6.85009 4.92309C6.27444 4.92309 5.78437 5.12533 5.37989 5.52981C4.9754 5.9343 4.77316 6.42436 4.77316 7.00001C4.77316 7.57566 4.9754 8.06573 5.37989 8.47021C5.78437 8.8747 6.27444 9.07694 6.85009 9.07694ZM14.8886 20.4288C14.5219 20.3545 14.1809 20.2256 13.8655 20.0423C13.5501 19.859 13.2661 19.6307 13.0136 19.3577L12.2751 19.6096C12.0584 19.6839 11.8434 19.6846 11.6299 19.6115C11.4165 19.5384 11.2489 19.3987 11.1271 19.1923L10.9386 18.8711C10.8168 18.6647 10.7729 18.4439 10.8069 18.2087C10.8409 17.9734 10.9508 17.7795 11.1367 17.6269L11.7328 17.1308C11.6226 16.7603 11.5674 16.3833 11.5674 16C11.5674 15.6167 11.6226 15.2398 11.7328 14.8692L11.1367 14.3577C10.9508 14.2051 10.8409 14.0138 10.8069 13.7837C10.7729 13.5536 10.8168 13.3353 10.9386 13.1289L11.1271 12.8077C11.2489 12.6013 11.4165 12.4616 11.6299 12.3885C11.8434 12.3155 12.0584 12.3161 12.2751 12.3905L13.0136 12.6424C13.2661 12.3693 13.5501 12.1411 13.8655 11.9577C14.1809 11.7744 14.5219 11.6456 14.8886 11.5712L15.0463 10.7674C15.0937 10.5404 15.2046 10.3542 15.379 10.2087C15.5533 10.0632 15.7591 9.99046 15.9962 9.99046H16.4039C16.6411 9.99046 16.8469 10.0632 17.0212 10.2087C17.1956 10.3542 17.3065 10.5404 17.3539 10.7674L17.5116 11.5712C17.8783 11.6456 18.2193 11.7744 18.5347 11.9577C18.8501 12.1411 19.134 12.3693 19.3866 12.6424L20.1251 12.3905C20.3417 12.3161 20.5568 12.3155 20.7702 12.3885C20.9837 12.4616 21.1513 12.6013 21.2731 12.8077L21.4616 13.1289C21.5833 13.3353 21.6273 13.5561 21.5933 13.7914C21.5593 14.0266 21.4494 14.2205 21.2635 14.3731L20.6673 14.8692C20.7776 15.2398 20.8327 15.6167 20.8327 16C20.8327 16.3833 20.7776 16.7603 20.6673 17.1308L21.2635 17.6423C21.4494 17.7949 21.5593 17.9862 21.5933 18.2163C21.6273 18.4465 21.5833 18.6647 21.4616 18.8711L21.2731 19.1923C21.1513 19.3987 20.9837 19.5384 20.7702 19.6115C20.5568 19.6846 20.3417 19.6839 20.1251 19.6096L19.3866 19.3577C19.134 19.6307 18.8501 19.859 18.5347 20.0423C18.2193 20.2256 17.8783 20.3545 17.5116 20.4288L17.3539 21.2327C17.3065 21.4596 17.1956 21.6458 17.0212 21.7913C16.8469 21.9368 16.6411 22.0095 16.4039 22.0095H15.9962C15.7591 22.0095 15.5533 21.9368 15.379 21.7913C15.2046 21.6458 15.0937 21.4596 15.0463 21.2327L14.8886 20.4288ZM16.2001 19C17.0334 19 17.7418 18.7083 18.3251 18.125C18.9084 17.5417 19.2001 16.8333 19.2001 16C19.2001 15.1667 18.9084 14.4583 18.3251 13.875C17.7418 13.2917 17.0334 13 16.2001 13C15.3668 13 14.6584 13.2917 14.0751 13.875C13.4918 14.4583 13.2001 15.1667 13.2001 16C13.2001 16.8333 13.4918 17.5417 14.0751 18.125C14.6584 18.7083 15.3668 19 16.2001 19Z" fill="white" fill-opacity="0.5"/>
</g>
</svg>
